<svg width="24" height="25" viewBox="0 0 24 25" fill="none" xmlns="http://www.w3.org/2000/svg">
<g filter="url(#filter0_d_73_10620)">
<path d="M9.25 16.5C8.8375 16.5 8.4845 16.3533 8.191 16.0597C7.897 15.7657 7.75 15.4125 7.75 15C7.75 14.5875 7.897 14.2343 8.191 13.9403C8.4845 13.6467 8.8375 13.5 9.25 13.5C9.6625 13.5 10.0155 13.6467 10.309 13.9403C10.603 14.2343 10.75 14.5875 10.75 15C10.75 15.4125 10.603 15.7657 10.309 16.0597C10.0155 16.3533 9.6625 16.5 9.25 16.5ZM16.75 16.5C16.3375 16.5 15.9845 16.3533 15.691 16.0597C15.397 15.7657 15.25 15.4125 15.25 15C15.25 14.5875 15.397 14.2343 15.691 13.9403C15.9845 13.6467 16.3375 13.5 16.75 13.5C17.1625 13.5 17.5157 13.6467 17.8097 13.9403C18.1033 14.2343 18.25 14.5875 18.25 15C18.25 15.4125 18.1033 15.7657 17.8097 16.0597C17.5157 16.3533 17.1625 16.5 16.75 16.5ZM8.6125 4.5L10.4125 8.25H15.6625L17.725 4.5H8.6125ZM9.25 12.75C8.6875 12.75 8.2625 12.503 7.975 12.009C7.6875 11.5155 7.675 11.025 7.9375 10.5375L8.95 8.7L6.25 3H5.48125C5.26875 3 5.09375 2.928 4.95625 2.784C4.81875 2.6405 4.75 2.4625 4.75 2.25C4.75 2.0375 4.822 1.85925 4.966 1.71525C5.1095 1.57175 5.2875 1.5 5.5 1.5H6.71875C6.85625 1.5 6.9875 1.5375 7.1125 1.6125C7.2375 1.6875 7.33125 1.79375 7.39375 1.93125L7.9 3H18.9625C19.3 3 19.5312 3.125 19.6562 3.375C19.7812 3.625 19.775 3.8875 19.6375 4.1625L16.975 8.9625C16.8375 9.2125 16.6563 9.40625 16.4313 9.54375C16.2063 9.68125 15.95 9.75 15.6625 9.75H10.075L9.25 11.25H17.5187C17.7312 11.25 17.9062 11.3217 18.0438 11.4653C18.1813 11.6093 18.25 11.7875 18.25 12C18.25 12.2125 18.178 12.3905 18.034 12.534C17.8905 12.678 17.7125 12.75 17.5 12.75H9.25ZM10.4125 8.25H15.6625H10.4125Z" fill="#181818"/>
</g>
<defs>
<filter id="filter0_d_73_10620" x="0.75" y="1.5" width="22.9955" height="23" filterUnits="userSpaceOnUse" color-interpolation-filters="sRGB">
<feFlood flood-opacity="0" result="BackgroundImageFix"/>
<feColorMatrix in="SourceAlpha" type="matrix" values="0 0 0 0 0 0 0 0 0 0 0 0 0 0 0 0 0 0 127 0" result="hardAlpha"/>
<feOffset dy="4"/>
<feGaussianBlur stdDeviation="2"/>
<feComposite in2="hardAlpha" operator="out"/>
<feColorMatrix type="matrix" values="0 0 0 0 0 0 0 0 0 0 0 0 0 0 0 0 0 0 0.25 0"/>
<feBlend mode="normal" in2="BackgroundImageFix" result="effect1_dropShadow_73_10620"/>
<feBlend mode="normal" in="SourceGraphic" in2="effect1_dropShadow_73_10620" result="shape"/>
</filter>
</defs>
</svg>
